<mxfile host="app.diagrams.net" modified="2023-06-09T04:04:04.031Z" agent="Mozilla/5.0 (Windows NT 6.1; Win64; x64; rv:109.0) Gecko/20100101 Firefox/113.0" etag="m6GEKT8mfYatmU8_TI3C" version="21.3.8" type="device">
  <diagram name="Page-1" id="phosknVxhifsqG3IDHxe">
    <mxGraphModel dx="1069" dy="638" grid="1" gridSize="10" guides="1" tooltips="1" connect="1" arrows="1" fold="1" page="1" pageScale="1" pageWidth="850" pageHeight="1100" math="1" shadow="0">
      <root>
        <mxCell id="0" />
        <mxCell id="1" parent="0" />
        <mxCell id="KL6pejyq9oVrUMB4TTqh-54" value="" style="rounded=0;whiteSpace=wrap;html=1;strokeColor=none;fillColor=#fad9d5;strokeWidth=3;" vertex="1" parent="1">
          <mxGeometry x="590" y="429" width="190" height="10" as="geometry" />
        </mxCell>
        <mxCell id="KL6pejyq9oVrUMB4TTqh-52" value="" style="rounded=0;whiteSpace=wrap;html=1;strokeColor=none;fillColor=#fad9d5;strokeWidth=3;" vertex="1" parent="1">
          <mxGeometry x="621" y="411" width="120" height="28" as="geometry" />
        </mxCell>
        <mxCell id="KL6pejyq9oVrUMB4TTqh-51" value="" style="shape=trapezoid;perimeter=trapezoidPerimeter;whiteSpace=wrap;html=1;fixedSize=1;strokeColor=none;fillColor=#fad9d5;strokeWidth=3;" vertex="1" parent="1">
          <mxGeometry x="630" y="382" width="100" height="50" as="geometry" />
        </mxCell>
        <mxCell id="KL6pejyq9oVrUMB4TTqh-50" value="" style="triangle;whiteSpace=wrap;html=1;rotation=-90;fillColor=#fad9d5;strokeColor=none;strokeWidth=3;" vertex="1" parent="1">
          <mxGeometry x="645" y="328" width="70" height="80" as="geometry" />
        </mxCell>
        <mxCell id="KL6pejyq9oVrUMB4TTqh-1" value="" style="endArrow=blockThin;html=1;rounded=0;endFill=1;strokeWidth=3;" edge="1" parent="1">
          <mxGeometry width="50" height="50" relative="1" as="geometry">
            <mxPoint x="200" y="240" as="sourcePoint" />
            <mxPoint x="200" y="160" as="targetPoint" />
          </mxGeometry>
        </mxCell>
        <mxCell id="KL6pejyq9oVrUMB4TTqh-2" value="" style="endArrow=none;html=1;rounded=0;strokeWidth=3;" edge="1" parent="1">
          <mxGeometry width="50" height="50" relative="1" as="geometry">
            <mxPoint x="40" y="240" as="sourcePoint" />
            <mxPoint x="360" y="240" as="targetPoint" />
          </mxGeometry>
        </mxCell>
        <mxCell id="KL6pejyq9oVrUMB4TTqh-3" value="" style="endArrow=blockThin;html=1;rounded=0;fillColor=#f8cecc;strokeColor=#b85450;endFill=1;strokeWidth=3;" edge="1" parent="1">
          <mxGeometry width="50" height="50" relative="1" as="geometry">
            <mxPoint x="680" y="240" as="sourcePoint" />
            <mxPoint x="680" y="130" as="targetPoint" />
          </mxGeometry>
        </mxCell>
        <mxCell id="KL6pejyq9oVrUMB4TTqh-4" value="" style="endArrow=none;html=1;rounded=0;strokeWidth=3;" edge="1" parent="1">
          <mxGeometry width="50" height="50" relative="1" as="geometry">
            <mxPoint x="520" y="240" as="sourcePoint" />
            <mxPoint x="840" y="240" as="targetPoint" />
          </mxGeometry>
        </mxCell>
        <mxCell id="KL6pejyq9oVrUMB4TTqh-5" value="" style="endArrow=none;html=1;rounded=0;fillColor=#f8cecc;strokeColor=#b85450;strokeWidth=3;" edge="1" parent="1">
          <mxGeometry width="50" height="50" relative="1" as="geometry">
            <mxPoint x="560" y="240" as="sourcePoint" />
            <mxPoint x="800" y="240" as="targetPoint" />
            <Array as="points">
              <mxPoint x="590" y="230" />
              <mxPoint x="610" y="220" />
              <mxPoint x="640" y="200" />
              <mxPoint x="680" y="130" />
              <mxPoint x="720" y="200" />
              <mxPoint x="750" y="220" />
            </Array>
          </mxGeometry>
        </mxCell>
        <mxCell id="KL6pejyq9oVrUMB4TTqh-6" value="" style="endArrow=blockThin;html=1;rounded=0;endFill=1;strokeWidth=3;" edge="1" parent="1">
          <mxGeometry width="50" height="50" relative="1" as="geometry">
            <mxPoint x="680" y="240" as="sourcePoint" />
            <mxPoint x="680" y="160" as="targetPoint" />
          </mxGeometry>
        </mxCell>
        <mxCell id="KL6pejyq9oVrUMB4TTqh-7" value="" style="endArrow=none;html=1;rounded=0;dashed=1;strokeWidth=3;" edge="1" parent="1">
          <mxGeometry width="50" height="50" relative="1" as="geometry">
            <mxPoint x="600" y="130" as="sourcePoint" />
            <mxPoint x="690" y="130" as="targetPoint" />
          </mxGeometry>
        </mxCell>
        <mxCell id="KL6pejyq9oVrUMB4TTqh-8" value="" style="endArrow=none;html=1;rounded=0;dashed=1;fillColor=#d5e8d4;strokeColor=#82b366;strokeWidth=3;" edge="1" parent="1">
          <mxGeometry width="50" height="50" relative="1" as="geometry">
            <mxPoint x="600" y="130" as="sourcePoint" />
            <mxPoint x="690" y="130" as="targetPoint" />
          </mxGeometry>
        </mxCell>
        <mxCell id="KL6pejyq9oVrUMB4TTqh-9" value="" style="endArrow=none;html=1;rounded=0;dashed=1;fillColor=#d5e8d4;strokeColor=#82b366;strokeWidth=3;" edge="1" parent="1">
          <mxGeometry width="50" height="50" relative="1" as="geometry">
            <mxPoint x="600" y="160" as="sourcePoint" />
            <mxPoint x="690" y="160" as="targetPoint" />
          </mxGeometry>
        </mxCell>
        <mxCell id="KL6pejyq9oVrUMB4TTqh-10" value="" style="endArrow=classic;startArrow=classic;html=1;rounded=0;endSize=3;startSize=3;fillColor=#bac8d3;strokeColor=#23445d;strokeWidth=3;" edge="1" parent="1">
          <mxGeometry width="50" height="50" relative="1" as="geometry">
            <mxPoint x="620" y="160" as="sourcePoint" />
            <mxPoint x="620" y="130" as="targetPoint" />
          </mxGeometry>
        </mxCell>
        <mxCell id="KL6pejyq9oVrUMB4TTqh-12" value="&lt;font style=&quot;font-size: 16px;&quot;&gt;$$X_{sig}$$&lt;/font&gt;" style="text;html=1;strokeColor=none;fillColor=none;align=center;verticalAlign=middle;whiteSpace=wrap;rounded=0;strokeWidth=3;" vertex="1" parent="1">
          <mxGeometry x="200" y="140" width="60" height="30" as="geometry" />
        </mxCell>
        <mxCell id="KL6pejyq9oVrUMB4TTqh-13" value="&lt;font style=&quot;font-size: 16px;&quot;&gt;$$X_{v,sig}$$&lt;/font&gt;" style="text;html=1;strokeColor=none;fillColor=none;align=center;verticalAlign=middle;whiteSpace=wrap;rounded=0;strokeWidth=3;" vertex="1" parent="1">
          <mxGeometry x="700" y="120" width="60" height="30" as="geometry" />
        </mxCell>
        <mxCell id="KL6pejyq9oVrUMB4TTqh-14" value="coherent gain" style="text;html=1;strokeColor=none;fillColor=none;align=center;verticalAlign=middle;whiteSpace=wrap;rounded=0;strokeWidth=3;" vertex="1" parent="1">
          <mxGeometry x="520" y="130" width="90" height="30" as="geometry" />
        </mxCell>
        <mxCell id="KL6pejyq9oVrUMB4TTqh-15" value="" style="endArrow=classic;html=1;rounded=0;strokeWidth=3;" edge="1" parent="1">
          <mxGeometry width="50" height="50" relative="1" as="geometry">
            <mxPoint x="200" y="440" as="sourcePoint" />
            <mxPoint x="200" y="380" as="targetPoint" />
          </mxGeometry>
        </mxCell>
        <mxCell id="KL6pejyq9oVrUMB4TTqh-16" value="" style="endArrow=none;html=1;rounded=0;strokeWidth=3;" edge="1" parent="1">
          <mxGeometry width="50" height="50" relative="1" as="geometry">
            <mxPoint x="40" y="440" as="sourcePoint" />
            <mxPoint x="360" y="440" as="targetPoint" />
          </mxGeometry>
        </mxCell>
        <mxCell id="KL6pejyq9oVrUMB4TTqh-17" value="&lt;font style=&quot;font-size: 16px;&quot;&gt;$$X_{n}$$&lt;/font&gt;" style="text;html=1;strokeColor=none;fillColor=none;align=center;verticalAlign=middle;whiteSpace=wrap;rounded=0;strokeWidth=3;" vertex="1" parent="1">
          <mxGeometry x="320" y="360" width="60" height="30" as="geometry" />
        </mxCell>
        <mxCell id="KL6pejyq9oVrUMB4TTqh-18" value="" style="endArrow=classic;html=1;rounded=0;strokeWidth=3;" edge="1" parent="1">
          <mxGeometry width="50" height="50" relative="1" as="geometry">
            <mxPoint x="240" y="440" as="sourcePoint" />
            <mxPoint x="240" y="380" as="targetPoint" />
          </mxGeometry>
        </mxCell>
        <mxCell id="KL6pejyq9oVrUMB4TTqh-20" value="" style="endArrow=classic;html=1;rounded=0;strokeWidth=3;" edge="1" parent="1">
          <mxGeometry width="50" height="50" relative="1" as="geometry">
            <mxPoint x="120" y="440" as="sourcePoint" />
            <mxPoint x="120" y="380" as="targetPoint" />
          </mxGeometry>
        </mxCell>
        <mxCell id="KL6pejyq9oVrUMB4TTqh-21" value="" style="endArrow=classic;html=1;rounded=0;strokeWidth=3;" edge="1" parent="1">
          <mxGeometry width="50" height="50" relative="1" as="geometry">
            <mxPoint x="160" y="440" as="sourcePoint" />
            <mxPoint x="160" y="380" as="targetPoint" />
          </mxGeometry>
        </mxCell>
        <mxCell id="KL6pejyq9oVrUMB4TTqh-22" value="" style="endArrow=classic;html=1;rounded=0;strokeWidth=3;" edge="1" parent="1">
          <mxGeometry width="50" height="50" relative="1" as="geometry">
            <mxPoint x="320" y="440" as="sourcePoint" />
            <mxPoint x="320" y="380" as="targetPoint" />
          </mxGeometry>
        </mxCell>
        <mxCell id="KL6pejyq9oVrUMB4TTqh-24" value="" style="endArrow=classic;html=1;rounded=0;strokeWidth=3;" edge="1" parent="1">
          <mxGeometry width="50" height="50" relative="1" as="geometry">
            <mxPoint x="280" y="440" as="sourcePoint" />
            <mxPoint x="280" y="380" as="targetPoint" />
          </mxGeometry>
        </mxCell>
        <mxCell id="KL6pejyq9oVrUMB4TTqh-25" value="" style="endArrow=classic;html=1;rounded=0;strokeWidth=3;" edge="1" parent="1">
          <mxGeometry width="50" height="50" relative="1" as="geometry">
            <mxPoint x="80" y="440" as="sourcePoint" />
            <mxPoint x="80" y="380" as="targetPoint" />
          </mxGeometry>
        </mxCell>
        <mxCell id="KL6pejyq9oVrUMB4TTqh-27" value="" style="endArrow=none;html=1;rounded=0;shadow=0;strokeWidth=3;" edge="1" parent="1">
          <mxGeometry width="50" height="50" relative="1" as="geometry">
            <mxPoint x="520" y="440" as="sourcePoint" />
            <mxPoint x="840" y="440" as="targetPoint" />
          </mxGeometry>
        </mxCell>
        <mxCell id="KL6pejyq9oVrUMB4TTqh-28" value="&lt;font style=&quot;font-size: 16px;&quot;&gt;$$X_{v,n}$$&lt;/font&gt;" style="text;html=1;strokeColor=none;fillColor=none;align=center;verticalAlign=middle;whiteSpace=wrap;rounded=0;strokeWidth=3;" vertex="1" parent="1">
          <mxGeometry x="710" y="320" width="60" height="30" as="geometry" />
        </mxCell>
        <mxCell id="KL6pejyq9oVrUMB4TTqh-26" value="" style="endArrow=classic;html=1;rounded=0;fillColor=#d0cee2;strokeColor=#56517e;strokeWidth=3;" edge="1" parent="1">
          <mxGeometry width="50" height="50" relative="1" as="geometry">
            <mxPoint x="680" y="440" as="sourcePoint" />
            <mxPoint x="680" y="330" as="targetPoint" />
          </mxGeometry>
        </mxCell>
        <mxCell id="KL6pejyq9oVrUMB4TTqh-29" value="" style="endArrow=classic;html=1;rounded=0;fillColor=#d0cee2;strokeColor=#56517e;strokeWidth=3;" edge="1" parent="1">
          <mxGeometry width="50" height="50" relative="1" as="geometry">
            <mxPoint x="720" y="440" as="sourcePoint" />
            <mxPoint x="720" y="400" as="targetPoint" />
          </mxGeometry>
        </mxCell>
        <mxCell id="KL6pejyq9oVrUMB4TTqh-30" value="" style="endArrow=classic;html=1;rounded=0;fillColor=#d0cee2;strokeColor=#56517e;strokeWidth=3;" edge="1" parent="1">
          <mxGeometry width="50" height="50" relative="1" as="geometry">
            <mxPoint x="600" y="440" as="sourcePoint" />
            <mxPoint x="600" y="420" as="targetPoint" />
          </mxGeometry>
        </mxCell>
        <mxCell id="KL6pejyq9oVrUMB4TTqh-31" value="" style="endArrow=classic;html=1;rounded=0;fillColor=#d0cee2;strokeColor=#56517e;strokeWidth=3;" edge="1" parent="1">
          <mxGeometry width="50" height="50" relative="1" as="geometry">
            <mxPoint x="640" y="440" as="sourcePoint" />
            <mxPoint x="640" y="400" as="targetPoint" />
          </mxGeometry>
        </mxCell>
        <mxCell id="KL6pejyq9oVrUMB4TTqh-32" value="" style="endArrow=classic;html=1;rounded=0;fillColor=#d0cee2;strokeColor=#56517e;strokeWidth=3;" edge="1" parent="1">
          <mxGeometry width="50" height="50" relative="1" as="geometry">
            <mxPoint x="800" y="440" as="sourcePoint" />
            <mxPoint x="800" y="430" as="targetPoint" />
          </mxGeometry>
        </mxCell>
        <mxCell id="KL6pejyq9oVrUMB4TTqh-33" value="" style="endArrow=classic;html=1;rounded=0;fillColor=#d0cee2;strokeColor=#56517e;strokeWidth=3;" edge="1" parent="1">
          <mxGeometry width="50" height="50" relative="1" as="geometry">
            <mxPoint x="760" y="440" as="sourcePoint" />
            <mxPoint x="760" y="420" as="targetPoint" />
          </mxGeometry>
        </mxCell>
        <mxCell id="KL6pejyq9oVrUMB4TTqh-34" value="" style="endArrow=classic;html=1;rounded=0;fillColor=#d0cee2;strokeColor=#56517e;strokeWidth=3;" edge="1" parent="1">
          <mxGeometry width="50" height="50" relative="1" as="geometry">
            <mxPoint x="560" y="440" as="sourcePoint" />
            <mxPoint x="560" y="430" as="targetPoint" />
          </mxGeometry>
        </mxCell>
        <mxCell id="KL6pejyq9oVrUMB4TTqh-37" value="" style="endArrow=none;html=1;rounded=0;fillColor=#d0cee2;strokeColor=#56517e;shadow=0;strokeWidth=3;" edge="1" parent="1">
          <mxGeometry width="50" height="50" relative="1" as="geometry">
            <mxPoint x="560" y="440" as="sourcePoint" />
            <mxPoint x="800" y="440" as="targetPoint" />
            <Array as="points">
              <mxPoint x="590" y="430" />
              <mxPoint x="610" y="420" />
              <mxPoint x="640" y="400" />
              <mxPoint x="680" y="330" />
              <mxPoint x="720" y="400" />
              <mxPoint x="750" y="420" />
            </Array>
          </mxGeometry>
        </mxCell>
        <mxCell id="KL6pejyq9oVrUMB4TTqh-56" value="" style="endArrow=classic;html=1;rounded=0;strokeWidth=3;fillColor=#bac8d3;strokeColor=#23445d;" edge="1" parent="1">
          <mxGeometry width="50" height="50" relative="1" as="geometry">
            <mxPoint x="400" y="306" as="sourcePoint" />
            <mxPoint x="510" y="306" as="targetPoint" />
          </mxGeometry>
        </mxCell>
        <mxCell id="KL6pejyq9oVrUMB4TTqh-57" value="&lt;font style=&quot;font-size: 20px;&quot;&gt;$$v[n] = x[n]w[n]$$&lt;/font&gt;" style="text;html=1;strokeColor=none;fillColor=none;align=center;verticalAlign=middle;whiteSpace=wrap;rounded=0;" vertex="1" parent="1">
          <mxGeometry x="425" y="314" width="60" height="30" as="geometry" />
        </mxCell>
        <mxCell id="KL6pejyq9oVrUMB4TTqh-59" value="&lt;font style=&quot;font-size: 20px;&quot;&gt;windowed&lt;/font&gt;" style="text;html=1;strokeColor=none;fillColor=none;align=center;verticalAlign=middle;whiteSpace=wrap;rounded=0;" vertex="1" parent="1">
          <mxGeometry x="420" y="266" width="60" height="30" as="geometry" />
        </mxCell>
      </root>
    </mxGraphModel>
  </diagram>
</mxfile>
